<?xml version="1.0" encoding="UTF-8"?>
<svg xmlns="http://www.w3.org/2000/svg" viewBox="0 0 96 64" fill="none" role="img" aria-label="Pipeline-Check">
  <line x1="6" y1="56" x2="90" y2="56" stroke="#ffffff" stroke-width="1.4" opacity=".4"></line>
  <circle cx="10" cy="56" r="2.2" fill="#ffffff" opacity=".55"></circle>
  <circle cx="86" cy="56" r="2.2" fill="#ffffff" opacity=".55"></circle>
  <line x1="30" y1="56" x2="62" y2="56" stroke="#1ba3a9" stroke-width="2" stroke-linecap="round"></line>
  <path d="M22 50 Q14 50 14 38 Q14 24 30 22 Q48 20 52 36 Q54 50 44 52 Q32 54 22 50 Z" fill="#ffffff" stroke="#ffffff" stroke-width="1" stroke-linejoin="round"></path>
  <path d="M26 38 Q34 32 44 36 Q42 42 34 44 Q28 44 26 38 Z" fill="#1ba3a9" opacity=".25"></path>
  <path d="M48 28 Q52 18 60 14 Q66 12 68 8" stroke="#ffffff" stroke-width="3.6" stroke-linecap="round" fill="none"></path>
  <circle cx="70" cy="9" r="6.2" fill="#ffffff"></circle>
  <circle cx="67" cy="11" r="1.6" fill="#1ba3a9" opacity=".35"></circle>
  <circle cx="72" cy="8" r="1.1" fill="#04101a"></circle>
  <circle cx="72.4" cy="7.6" r="0.35" fill="#ffffff"></circle>
  <path d="M75.5 8 L83 7 L83 10 L75.5 10.5 Z" fill="#1ba3a9" stroke="#1ba3a9" stroke-width=".6" stroke-linejoin="round"></path>
  <path d="M76 9.4 L82.4 9" stroke="#04101a" stroke-width=".5" opacity=".5"></path>
  <line x1="30" y1="52" x2="30" y2="57" stroke="#ffffff" stroke-width="1.6" stroke-linecap="round"></line>
  <path d="M25 58 L35 58 L30 55 Z" fill="#1ba3a9" stroke="#1ba3a9" stroke-width=".6" stroke-linejoin="round"></path>
  <line x1="26.5" y1="57.6" x2="30" y2="55.4" stroke="#04101a" stroke-width=".5" opacity=".55"></line>
  <line x1="33.5" y1="57.6" x2="30" y2="55.4" stroke="#04101a" stroke-width=".5" opacity=".55"></line>
  <line x1="42" y1="52" x2="42" y2="57" stroke="#ffffff" stroke-width="1.6" stroke-linecap="round"></line>
  <path d="M37 58 L47 58 L42 55 Z" fill="#1ba3a9" stroke="#1ba3a9" stroke-width=".6" stroke-linejoin="round"></path>
  <line x1="38.5" y1="57.6" x2="42" y2="55.4" stroke="#04101a" stroke-width=".5" opacity=".55"></line>
  <line x1="45.5" y1="57.6" x2="42" y2="55.4" stroke="#04101a" stroke-width=".5" opacity=".55"></line>
  <rect x="2" y="8" width="40" height="14" rx="3" fill="none" stroke="#dc3545" stroke-width="1.2"></rect>
  <text x="22" y="18" text-anchor="middle" font-family="JetBrains Mono, ui-monospace, monospace" font-size="7" font-weight="600" letter-spacing=".18em" fill="#dc3545">DENIED</text>
  <path d="M40 18 L48 17 L42 22 Z" fill="none" stroke="#dc3545" stroke-width="1.2" stroke-linejoin="round"></path>
</svg>
